HIERARCHY
ROOT Root
{
	OFFSET 0.00 0.00 0.00
	CHANNELS 6 Xposition Yposition Zposition Xrotation Yrotation Zrotation
	JOINT L_Femur
	{
		OFFSET 3.93700 0.00000 0.00000
		CHANNELS 3 Xrotation Zrotation Yrotation
		JOINT L_Tibia
		{
			OFFSET 0.00000 -18.44568 0.00000
			CHANNELS 1 Xrotation
			JOINT L_Foot
			{
				OFFSET -0.00000 -15.49322 0.19672
				CHANNELS 2 Xrotation Zrotation
				JOINT L_Toe
				{
					OFFSET 0.00000 -0.82039 5.66291
					CHANNELS 1 Xrotation
					End Site
					{
						OFFSET 0.00000 0.00000 1.71250
					}
				}
			}
		}
	}
	JOINT R_Femur
	{
		OFFSET -3.93700 0.00000 0.00000
		CHANNELS 3 Xrotation Zrotation Yrotation
		JOINT R_Tibia
		{
			OFFSET -0.00000 -18.44568 -0.00000
			CHANNELS 1 Xrotation
			JOINT R_Foot
			{
				OFFSET -0.00000 -15.49322 0.19672
				CHANNELS 2 Xrotation Zrotation
				JOINT R_Toe
				{
					OFFSET 0.00000 -0.96513 5.62412
					CHANNELS 1 Xrotation
					End Site
					{
						OFFSET 0.00000 0.00000 1.44139
					}
				}
			}
		}
	}
	JOINT LowerBack
	{
		OFFSET 0.00000 0.03937 0.00000
		CHANNELS 3 Xrotation Zrotation Yrotation
		JOINT Thorax
		{
			OFFSET 0.00000 8.42896 0.00000
			CHANNELS 3 Xrotation Zrotation Yrotation
			JOINT Neck
			{
				OFFSET 0.00000 7.29157 0.00000
				CHANNELS 3 Xrotation Zrotation Yrotation
				JOINT Head
				{
					OFFSET 0.00000 4.22110 0.00000
					CHANNELS 3 Xrotation Yrotation Zrotation
					End Site
					{
						OFFSET 0.00000 4.22110 0.00000
					}
				}
			}
			JOINT L_Collar
			{
				OFFSET 0.00000 7.29157 0.00000
				CHANNELS 2 Yrotation Zrotation
				JOINT L_Humerus
				{
					OFFSET 5.90550 0.00000 0.00000
					CHANNELS 3 Xrotation Yrotation Zrotation
					JOINT L_Elbow
					{
						OFFSET 11.59585 0.00000 0.00000
						CHANNELS 2 Yrotation Xrotation
						JOINT L_Wrist
						{
							OFFSET 8.38509 0.00000 0.00000
							CHANNELS 2 Zrotation Yrotation
							End Site
							{
								OFFSET 3.93700 0.00000 0.00000
							}
						}
					}
				}
			}
			JOINT R_Collar
			{
				OFFSET 0.00000 7.29157 0.00000
				CHANNELS 2 Yrotation Zrotation
				JOINT R_Humerus
				{
					OFFSET -5.90550 0.00000 0.00000
					CHANNELS 3 Xrotation Yrotation Zrotation
					JOINT R_Elbow
					{
						OFFSET -11.59585 -0.00000 0.00000
						CHANNELS 2 Yrotation Xrotation
						JOINT R_Wrist
						{
							OFFSET -8.38509 -0.00000 0.00000
							CHANNELS 2 Zrotation Yrotation
							End Site
							{
								OFFSET -5.41338 0.00000 0.00000
							}
						}
					}
				}
			}
		}
	}
}
MOTION
Frames: 19
Frame Time: 0.008333
 5.5608 37.8431 -10.3793 7.4887 7.5097 2.2696 -15.8297 5.2445 8.5984 28.8904 -4.3774 -12.9979 7.8547 -14.6901 -7.6295 -25.9277 29.0208 -10.0269 14.1253 8.3253 -14.3959 -1.9980 0.9198 9.7277 5.4607 0.9835 24.3761 3.4762 11.9983 -19.7825 17.1406 -12.6276 -0.5137 8.9787 -11.3350 -27.1311 -76.0473 -119.9513 -36.9003 13.3325 0.0000 2.9455 -10.4003 -34.3723 2.8884 84.5500 99.4751 -39.9284 -3.8115 -2.0742
 5.5524 37.8581 -10.3780 7.6790 7.5250 2.2437 -15.9282 5.3193 8.6694 28.7132 -4.2747 -12.9516 7.8630 -14.8103 -7.6086 -25.9513 28.8857 -9.9087 14.1592 8.2555 -14.3608 -1.9289 0.9267 9.3276 5.2871 0.9392 24.4869 3.4702 12.0901 -19.9171 17.0888 -12.4664 -0.4414 8.8071 -10.5896 -26.7013 -75.4261 -119.5529 -37.6380 13.4308 -0.0000 2.9343 -10.3928 -35.3492 1.2719 84.0718 98.0807 -41.3225 -3.5747 -1.9392
 5.5455 37.8727 -10.3776 7.8208 7.6012 2.2294 -15.9974 5.3353 8.6692 28.5289 -4.1560 -12.9280 7.8877 -14.8780 -7.6419 -26.0875 28.7932 -9.8202 14.1819 8.1806 -14.2629 -1.8533 0.8926 8.9362 5.0950 0.8532 24.5015 3.4895 12.1027 -19.9093 17.0843 -12.3822 -0.3803 8.5969 -9.8123 -26.2405 -74.7064 -119.1752 -38.5082 13.4228 0.0000 3.0183 -10.5206 -35.8722 -0.0700 83.6037 96.8011 -41.9526 -3.1409 -1.6926
 5.5361 37.8895 -10.3761 8.0101 7.6297 2.1739 -16.0863 5.3926 8.7123 28.3118 -4.0471 -12.8994 7.8987 -14.9297 -7.5456 -26.2279 28.4863 -9.6951 14.1147 8.1504 -14.2272 -1.7672 0.8614 8.5796 4.9780 0.7829 24.5346 3.3872 12.2388 -20.0354 16.9660 -12.2687 -0.3246 8.3778 -9.0165 -25.7943 -74.0046 -118.8393 -38.9845 13.5443 -0.0000 3.0757 -10.6113 -36.4582 -0.8933 83.0383 95.5142 -42.1855 -2.6517 -1.4920
 5.5234 37.9056 -10.3725 8.1789 7.7043 2.1461 -16.1391 5.4025 8.7206 28.0439 -3.9164 -12.8691 7.9003 -14.9850 -7.5272 -26.3506 28.2944 -9.6081 14.0940 8.1518 -14.1856 -1.7087 0.8320 8.2521 4.8368 0.7153 24.5301 3.3764 12.2727 -20.1311 16.9326 -12.2112 -0.2687 8.1353 -8.2826 -25.3761 -73.2195 -118.5220 -39.4697 13.6014 -0.0000 3.1002 -10.6506 -36.9762 -1.3316 82.3888 94.5693 -42.5517 -2.4873 -1.4036
 5.5086 37.9199 -10.3690 8.3415 7.7738 2.1509 -16.1867 5.4121 8.7454 27.7889 -3.7844 -12.8374 7.9105 -15.0374 -7.5288 -26.4527 28.1012 -9.5496 14.0610 8.1597 -14.1127 -1.6620 0.7859 7.9344 4.6419 0.6259 24.4665 3.4086 12.2847 -20.2108 16.9991 -12.1901 -0.2377 7.9947 -7.4053 -24.9365 -72.4750 -118.2152 -39.6910 13.5967 -0.0000 3.1181 -10.6456 -37.2775 -1.3177 81.7553 93.9630 -43.0949 -2.4067 -1.3565
 5.4942 37.9328 -10.3654 8.5001 7.8025 2.1263 -16.2500 5.4506 8.7858 27.5902 -3.6793 -12.8131 7.9156 -15.1028 -7.5046 -26.5190 27.9420 -9.4675 14.0077 8.0914 -14.0739 -1.6028 0.7382 7.7219 4.5078 0.5467 24.3279 3.3942 12.2901 -20.3346 16.9939 -12.1976 -0.2141 7.9019 -6.5185 -24.4664 -71.7979 -118.0252 -39.8064 13.7099 -0.0000 3.0660 -10.5621 -37.7788 -0.8776 81.0802 93.6039 -43.4691 -2.4434 -1.3751
 5.4791 37.9447 -10.3605 8.6733 7.8424 2.1163 -16.3140 5.4495 8.8175 27.3581 -3.5725 -12.7897 7.9112 -15.1757 -7.4983 -26.6177 27.7773 -9.4177 13.9565 8.0697 -14.0566 -1.5333 0.6859 7.5002 4.3528 0.4588 24.2254 3.3665 12.3469 -20.4699 17.0054 -12.1754 -0.1812 7.7009 -5.6885 -24.0074 -70.9574 -117.7855 -39.8386 13.6426 -0.0000 3.0152 -10.4530 -38.0503 -0.1664 80.4980 93.6186 -43.9027 -2.6111 -1.4775
 5.4615 37.9542 -10.3556 8.8374 7.8199 2.0087 -16.3416 5.5563 8.8801 27.0741 -3.6094 -12.7418 8.2595 -15.2029 -7.3418 -26.7141 27.4927 -9.3273 13.8939 8.0615 -14.0341 -1.3725 0.6178 7.3322 4.2191 0.3522 24.0532 3.3166 12.4027 -20.5763 17.0092 -12.1681 -0.1567 7.5515 -4.8721 -23.4242 -70.2089 -117.5672 -40.0669 13.4565 -0.0000 3.0079 -10.3967 -38.0522 0.7522 80.0681 93.8618 -43.9950 -2.7608 -1.5587
 5.4425 37.9653 -10.3497 8.9714 7.8067 2.0504 -16.4025 5.5386 8.9555 26.9631 -3.4140 -12.7497 7.9516 -15.2486 -7.3671 -26.7374 27.3405 -9.3027 13.8600 8.0200 -13.9919 -1.3469 0.5576 7.1579 4.0831 0.2661 23.9735 3.3202 12.4369 -20.7257 17.1036 -12.2350 -0.1335 7.3954 -4.0952 -22.8330 -69.4647 -117.3047 -40.4862 13.1372 -0.0000 2.9369 -10.2495 -38.1127 1.9331 79.6610 94.3999 -44.2442 -2.8507 -1.6193
 5.4213 37.9730 -10.3424 9.1059 7.7993 2.0735 -16.4087 5.5160 9.0311 26.7197 -3.3039 -12.7276 7.8975 -15.2955 -7.3854 -26.7688 27.2116 -9.3016 13.8124 7.9942 -13.9594 -1.3341 0.4584 7.0501 3.9985 0.1508 23.8323 3.2632 12.5240 -20.9548 17.1304 -12.2660 -0.0862 7.1823 -3.5379 -22.1888 -68.6717 -117.1198 -41.1300 12.8380 -0.0000 2.9210 -10.1829 -37.9063 3.2114 79.4047 95.1777 -44.2523 -2.9119 -1.6451
 5.3979 37.9773 -10.3328 9.2344 7.7774 2.0751 -16.4332 5.5072 9.0891 26.5319 -3.2444 -12.7304 7.8946 -15.3351 -7.3706 -26.7678 27.0870 -9.3119 13.7910 7.9814 -13.9392 -1.3001 0.3700 6.9474 3.9046 0.0433 23.7600 3.2301 12.5722 -21.2037 17.1417 -12.3259 -0.0769 7.1277 -2.8129 -21.5390 -68.0999 -116.8767 -41.7241 12.4783 -0.0000 2.8687 -10.0727 -37.7587 4.6426 79.2183 96.1224 -44.2399 -2.7888 -1.5981
 5.3735 37.9800 -10.3245 9.3711 7.7128 1.9605 -16.4928 5.6894 9.1686 26.4113 -3.3413 -12.6801 8.2420 -15.3516 -7.1998 -26.8030 26.8520 -9.2676 13.7292 7.9487 -13.9512 -1.1719 0.3110 6.8786 3.8826 -0.0327 23.6570 3.1824 12.6270 -21.4241 17.1304 -12.3591 -0.0531 7.0252 -2.3276 -20.9883 -67.5401 -116.5943 -42.3365 12.1661 -0.0000 2.8109 -9.9652 -37.5362 6.1586 79.0163 97.3568 -44.3735 -2.7532 -1.5773
 5.3461 37.9824 -10.3180 9.4813 7.6402 2.0265 -16.5508 5.6758 9.2790 26.3729 -3.1908 -12.7098 7.9154 -15.4084 -7.2094 -26.7211 26.7436 -9.3144 13.7266 7.9436 -13.9324 -1.2604 0.2493 6.8307 3.9431 -0.0805 23.5864 3.0892 12.6863 -21.6799 17.0334 -12.4099 -0.0677 6.9932 -1.5704 -20.4252 -67.1063 -116.3131 -43.0023 11.8200 0.0000 2.7565 -9.8601 -37.2500 7.8106 78.8615 98.8477 -44.7179 -2.9283 -1.6423
 5.3173 37.9839 -10.3091 9.5612 7.5043 2.0514 -16.5495 5.7204 9.4134 26.2938 -3.1435 -12.7302 7.8745 -15.4477 -7.1783 -26.6295 26.6585 -9.3489 13.6632 7.9464 -13.8948 -1.2857 0.2378 6.7887 3.9819 -0.0852 23.4860 3.0127 12.7536 -21.9154 16.9308 -12.3797 -0.0664 6.9312 -0.9991 -19.9786 -66.6261 -116.0402 -43.6072 11.5689 -0.0000 2.7019 -9.7556 -36.9074 9.4869 78.7586 100.4417 -45.0174 -2.9997 -1.6907
 5.2907 37.9845 -10.2989 9.6621 7.3981 2.0658 -16.5315 5.7230 9.5332 26.1183 -3.1152 -12.7732 7.8968 -15.5046 -7.1636 -26.5534 26.5994 -9.3889 13.6160 7.9250 -13.8961 -1.3062 0.2002 6.7953 4.0526 -0.1124 23.3498 2.9233 12.8070 -22.0969 16.8577 -12.4184 -0.0567 6.8284 -0.5444 -19.5340 -66.1386 -115.7983 -44.1723 11.3687 0.0000 2.6430 -9.6423 -36.5858 11.2601 78.7029 102.1180 -44.9774 -2.8554 -1.6263
 5.2627 37.9830 -10.2887 9.7591 7.3159 2.0521 -16.5932 5.7981 9.6158 26.1109 -3.1093 -12.7722 7.8887 -15.5505 -7.1154 -26.4947 26.5294 -9.4237 13.5893 7.9010 -13.9064 -1.3388 0.1587 6.8569 4.1531 -0.1371 23.1097 2.9157 12.7673 -22.2179 16.8251 -12.4309 -0.0542 6.7784 -0.0700 -19.1932 -65.6969 -115.5908 -44.4835 11.3301 -0.0000 2.5429 -9.4673 -36.4097 13.0976 78.6342 104.0764 -45.4969 -3.1948 -1.7751
 5.2355 37.9826 -10.2794 9.8274 7.2064 2.0536 -16.5955 5.8330 9.7336 26.0395 -3.0880 -12.7672 7.8853 -15.5808 -7.0772 -26.4079 26.4727 -9.4550 13.5560 7.8853 -13.8639 -1.2750 0.1222 6.8427 4.1641 -0.1779 23.0277 2.7551 12.8791 -22.4776 16.6406 -12.4340 -0.0523 6.6651 0.4698 -18.9082 -65.1709 -115.4201 -44.0126 11.5139 0.0000 2.6404 -9.5877 -35.4373 14.8329 78.8682 105.9931 -45.5934 -3.1785 -1.7833
 5.2091 37.9826 -10.2720 9.9008 7.0798 2.0482 -16.6146 5.8743 9.8632 25.9920 -3.0687 -12.7753 7.8651 -15.6297 -7.0239 -26.3101 26.4209 -9.4773 13.5204 7.8962 -13.8400 -1.2778 0.0851 6.8996 4.3885 -0.1838 22.8741 2.4172 13.0793 -22.7267 16.2717 -12.4485 -0.0523 6.4279 0.9378 -18.5584 -64.6523 -115.2184 -44.2157 11.4769 -0.0000 2.8948 -9.9956 -34.0973 16.4070 79.3448 108.0185 -45.8214 -3.1225 -1.7162
